<svg width="256" height="256" viewBox="0 0 256 256" xmlns="http://www.w3.org/2000/svg">
  <defs>
    <linearGradient id="grad" x1="0" y1="0" x2="1" y2="1">
      <stop offset="0%" stop-color="#22d3ee"/>
      <stop offset="100%" stop-color="#8b5cf6"/>
    </linearGradient>
    <filter id="glow" x="-50%" y="-50%" width="200%" height="200%">
      <feGaussianBlur stdDeviation="6" result="blur"/>
      <feMerge>
        <feMergeNode in="blur"/>
        <feMergeNode in="SourceGraphic"/>
      </feMerge>
    </filter>
  </defs>
  <rect x="16" y="16" rx="48" ry="48" width="224" height="224" fill="#0b1220" stroke="url(#grad)" stroke-width="4"/>
  <g filter="url(#glow)">
    <path d="M56 78c0-15 12-27 27-27h90c29 0 53 24 53 53s-24 53-53 53h-55l-34 30 8-30h-9c-15 0-27-12-27-27V78z" fill="url(#grad)"/>
    <!-- Facets -->
    <path d="M85 82l36-16 36 16-30 22-42-22z" fill="#2ad1f0" opacity="0.35"/>
    <path d="M121 64l34 58-34 22-34-58 34-22z" fill="#8b5cf6" opacity="0.25"/>
    <path d="M157 82l36 22-26 18-40-18 30-22z" fill="#6a8bff" opacity="0.28"/>
    <!-- ST Monogram -->
    <text x="80" y="144" font-family="Segoe UI, Roboto, Arial, sans-serif" font-size="60" font-weight="800" fill="#e6f3ff" stroke="#0b1220" stroke-width="2" letter-spacing="1" text-rendering="geometricPrecision">ST</text>
  </g>
</svg>
